<svg data-v-423bf9ae="" xmlns="http://www.w3.org/2000/svg" viewBox="0 0 422.5884043989343 163" class="iconAbove"><!----><!----><!----><g data-v-423bf9ae="" id="1f42e7f1-6a17-411b-a5c5-e2ed7b43da21" fill="white" transform="matrix(4.243281654165035,0,0,4.243281654165035,0.0000025124469118509296,89.93069092155976)"><path d="M5.11 13.83L5.11 13.83L5.11 13.83Q4.54 13.83 4.27 13.59L4.27 13.59L4.27 13.59Q3.99 13.35 3.99 12.82L3.99 12.82L3.99 4.14L3.99 4.14Q3.77 4.16 3.45 4.22L3.45 4.22L3.45 4.22Q3.12 4.28 2.77 4.39L2.77 4.39L2.77 4.39Q2.41 4.50 2.06 4.65L2.06 4.65L2.06 4.65Q1.70 4.81 1.42 5.01L1.42 5.01L1.42 5.01Q1.14 5.21 0.96 5.46L0.96 5.46L0.96 5.46Q0.79 5.71 0.79 6.02L0.79 6.02L0.79 6.02Q0.79 6.24 0.84 6.37L0.84 6.37L0.84 6.37Q0.90 6.50 0.98 6.57L0.98 6.57L0.98 6.57Q1.05 6.63 1.13 6.65L1.13 6.65L1.13 6.65Q1.21 6.67 1.24 6.67L1.24 6.67L1.24 6.67Q1.42 6.67 1.52 6.61L1.52 6.61L1.52 6.61Q1.63 6.55 1.72 6.48L1.72 6.48L1.72 6.48Q1.81 6.42 1.89 6.36L1.89 6.36L1.89 6.36Q1.97 6.30 2.07 6.30L2.07 6.30L2.07 6.30Q2.15 6.30 2.25 6.34L2.25 6.34L2.25 6.34Q2.34 6.38 2.42 6.46L2.42 6.46L2.42 6.46Q2.50 6.54 2.55 6.68L2.55 6.68L2.55 6.68Q2.60 6.81 2.60 7L2.60 7L2.60 7Q2.60 7.27 2.50 7.47L2.50 7.47L2.50 7.47Q2.39 7.67 2.23 7.80L2.23 7.80L2.23 7.80Q2.06 7.94 1.84 8.00L1.84 8.00L1.84 8.00Q1.63 8.07 1.42 8.07L1.42 8.07L1.42 8.07Q1.09 8.07 0.82 7.95L0.82 7.95L0.82 7.95Q0.56 7.84 0.38 7.64L0.38 7.64L0.38 7.64Q0.19 7.44 0.10 7.18L0.10 7.18L0.10 7.18Q0 6.91 0 6.61L0 6.61L0 6.61Q0 5.81 0.44 5.23L0.44 5.23L0.44 5.23Q0.88 4.64 1.65 4.26L1.65 4.26L1.65 4.26Q2.41 3.87 3.43 3.68L3.43 3.68L3.43 3.68Q4.45 3.50 5.61 3.50L5.61 3.50L5.61 3.50Q6.17 3.50 6.69 3.51L6.69 3.51L6.69 3.51Q7.22 3.52 7.65 3.54L7.65 3.54L7.65 3.54Q8.09 3.56 8.40 3.59L8.40 3.59L8.40 3.59Q8.72 3.62 8.86 3.65L8.86 3.65L8.86 3.65Q9.00 3.68 9.08 3.75L9.08 3.75L9.08 3.75Q9.16 3.81 9.20 3.90L9.20 3.90L9.20 3.90Q9.24 3.98 9.26 4.07L9.26 4.07L9.26 4.07Q9.27 4.16 9.27 4.26L9.27 4.26L9.27 4.26Q9.27 4.33 9.25 4.43L9.25 4.43L9.25 4.43Q9.23 4.53 9.19 4.62L9.19 4.62L9.19 4.62Q9.15 4.71 9.08 4.77L9.08 4.77L9.08 4.77Q9.02 4.83 8.93 4.83L8.93 4.83L8.93 4.83Q8.88 4.83 8.82 4.79L8.82 4.79L8.82 4.79Q8.76 4.74 8.66 4.67L8.66 4.67L8.66 4.67Q8.56 4.60 8.38 4.51L8.38 4.51L8.38 4.51Q8.21 4.42 7.93 4.35L7.93 4.35L7.93 4.35Q7.64 4.27 7.23 4.21L7.23 4.21L7.23 4.21Q6.82 4.15 6.23 4.13L6.23 4.13L6.23 12.82L6.23 12.82Q6.23 13.35 5.95 13.59L5.95 13.59L5.95 13.59Q5.68 13.83 5.11 13.83ZM11.12 4.21L11.12 7.92L11.12 7.92Q11.37 7.56 11.69 7.27L11.69 7.27L11.69 7.27Q11.82 7.15 11.98 7.03L11.98 7.03L11.98 7.03Q12.14 6.92 12.32 6.83L12.32 6.83L12.32 6.83Q12.50 6.73 12.70 6.68L12.70 6.68L12.70 6.68Q12.91 6.62 13.12 6.62L13.12 6.62L13.12 6.62Q13.58 6.62 13.94 6.80L13.94 6.80L13.94 6.80Q14.30 6.98 14.55 7.40L14.55 7.40L14.55 7.40Q14.79 7.81 14.92 8.50L14.92 8.50L14.92 8.50Q15.05 9.19 15.05 10.21L15.05 10.21L15.05 10.21Q15.05 11.20 14.88 11.93L14.88 11.93L14.88 11.93Q14.70 12.66 14.41 13.17L14.41 13.17L14.41 13.17Q14.12 13.69 13.76 14.01L13.76 14.01L13.76 14.01Q13.40 14.33 13.03 14.52L13.03 14.52L13.03 14.52Q12.66 14.70 12.32 14.78L12.32 14.78L12.32 14.78Q11.98 14.85 11.73 14.85L11.73 14.85L11.66 14.57L11.66 14.57Q11.97 14.50 12.21 14.29L12.21 14.29L12.21 14.29Q12.45 14.09 12.61 13.62L12.61 13.62L12.61 13.62Q12.78 13.15 12.86 12.36L12.86 12.36L12.86 12.36Q12.95 11.57 12.95 10.32L12.95 10.32L12.95 10.32Q12.95 9.45 12.87 8.94L12.87 8.94L12.87 8.94Q12.79 8.42 12.66 8.15L12.66 8.15L12.66 8.15Q12.54 7.88 12.38 7.80L12.38 7.80L12.38 7.80Q12.22 7.71 12.05 7.71L12.05 7.71L12.05 7.71Q11.85 7.71 11.70 7.82L11.70 7.82L11.70 7.82Q11.55 7.92 11.44 8.06L11.44 8.06L11.44 8.06Q11.33 8.20 11.25 8.33L11.25 8.33L11.25 8.33Q11.17 8.47 11.12 8.54L11.12 8.54L11.12 13.10L11.12 13.10Q11.12 13.19 11.09 13.32L11.09 13.32L11.09 13.32Q11.06 13.45 10.95 13.56L10.95 13.56L10.95 13.56Q10.85 13.67 10.64 13.75L10.64 13.75L10.64 13.75Q10.43 13.83 10.07 13.83L10.07 13.83L10.07 13.83Q9.71 13.83 9.50 13.74L9.50 13.74L9.50 13.74Q9.28 13.66 9.18 13.54L9.18 13.54L9.18 13.54Q9.07 13.43 9.04 13.30L9.04 13.30L9.04 13.30Q9.02 13.18 9.02 13.10L9.02 13.10L9.02 4.29L9.02 4.29Q9.02 4.09 8.92 3.94L8.92 3.94L8.92 3.94Q8.83 3.79 8.61 3.79L8.61 3.79L8.61 3.79Q8.50 3.79 8.41 3.83L8.41 3.83L8.41 3.83Q8.33 3.87 8.23 3.94L8.23 3.94L8.09 3.78L8.09 3.78Q8.25 3.65 8.44 3.52L8.44 3.52L8.44 3.52Q8.63 3.40 8.86 3.30L8.86 3.30L8.86 3.30Q9.09 3.21 9.35 3.14L9.35 3.14L9.35 3.14Q9.61 3.08 9.90 3.08L9.90 3.08L9.90 3.08Q10.34 3.08 10.59 3.20L10.59 3.20L10.59 3.20Q10.83 3.32 10.95 3.50L10.95 3.50L10.95 3.50Q11.07 3.67 11.09 3.87L11.09 3.87L11.09 3.87Q11.12 4.06 11.12 4.21L11.12 4.21ZM20.93 8.99L18.23 10.58L18.23 10.58Q18.23 10.80 18.30 11.06L18.30 11.06L18.30 11.06Q18.36 11.31 18.48 11.57L18.48 11.57L18.48 11.57Q18.61 11.83 18.79 12.07L18.79 12.07L18.79 12.07Q18.97 12.30 19.21 12.49L19.21 12.49L19.21 12.49Q19.44 12.67 19.73 12.78L19.73 12.78L19.73 12.78Q20.02 12.89 20.36 12.89L20.36 12.89L20.36 12.89Q20.60 12.89 20.80 12.84L20.80 12.84L20.80 12.84Q21.01 12.78 21.18 12.69L21.18 12.69L21.18 12.69Q21.36 12.59 21.53 12.47L21.53 12.47L21.53 12.47Q21.69 12.34 21.85 12.20L21.85 12.20L22.03 12.36L22.03 12.36Q21.87 12.57 21.62 12.82L21.62 12.82L21.62 12.82Q21.38 13.08 21.03 13.30L21.03 13.30L21.03 13.30Q20.68 13.52 20.21 13.67L20.21 13.67L20.21 13.67Q19.75 13.82 19.15 13.82L19.15 13.82L19.15 13.82Q18.56 13.82 18.00 13.60L18.00 13.60L18.00 13.60Q17.43 13.38 16.99 12.95L16.99 12.95L16.99 12.95Q16.56 12.52 16.29 11.88L16.29 11.88L16.29 11.88Q16.03 11.24 16.03 10.38L16.03 10.38L16.03 10.38Q16.03 9.75 16.19 9.24L16.19 9.24L16.19 9.24Q16.34 8.72 16.61 8.30L16.61 8.30L16.61 8.30Q16.88 7.88 17.24 7.57L17.24 7.57L17.24 7.57Q17.60 7.25 18.00 7.04L18.00 7.04L18.00 7.04Q18.40 6.84 18.81 6.73L18.81 6.73L18.81 6.73Q19.22 6.62 19.61 6.62L19.61 6.62L19.61 6.62Q20.11 6.62 20.49 6.73L20.49 6.73L20.49 6.73Q20.86 6.84 21.11 7.03L21.11 7.03L21.11 7.03Q21.36 7.21 21.49 7.45L21.49 7.45L21.49 7.45Q21.61 7.70 21.61 7.96L21.61 7.96L21.61 7.96Q21.61 8.29 21.42 8.54L21.42 8.54L21.42 8.54Q21.24 8.80 20.93 8.99L20.93 8.99ZM18.16 10.02L19.61 9.19L19.61 9.19Q19.69 9.14 19.75 9.09L19.75 9.09L19.75 9.09Q19.81 9.04 19.84 8.97L19.84 8.97L19.84 8.97Q19.88 8.89 19.90 8.79L19.90 8.79L19.90 8.79Q19.91 8.68 19.91 8.52L19.91 8.52L19.91 8.52Q19.91 8.35 19.88 8.15L19.88 8.15L19.88 8.15Q19.84 7.94 19.75 7.75L19.75 7.75L19.75 7.75Q19.66 7.57 19.52 7.44L19.52 7.44L19.52 7.44Q19.39 7.32 19.20 7.32L19.20 7.32L19.20 7.32Q18.95 7.32 18.77 7.47L18.77 7.47L18.77 7.47Q18.60 7.62 18.49 7.85L18.49 7.85L18.49 7.85Q18.38 8.08 18.31 8.38L18.31 8.38L18.31 8.38Q18.25 8.67 18.21 8.98L18.21 8.98L18.21 8.98Q18.18 9.28 18.17 9.55L18.17 9.55L18.17 9.55Q18.16 9.83 18.16 10.02L18.16 10.02ZM30.50 4.09L30.50 4.09L30.50 4.09Q30.31 4.09 30.06 4.16L30.06 4.16L30.06 4.16Q29.82 4.24 29.56 4.45L29.56 4.45L29.56 4.45Q29.31 4.66 29.06 5.03L29.06 5.03L29.06 5.03Q28.81 5.41 28.62 6.01L28.62 6.01L28.62 6.01Q28.42 6.60 28.30 7.46L28.30 7.46L28.30 7.46Q28.18 8.31 28.18 9.47L28.18 9.47L28.18 9.47Q28.18 10.58 28.30 11.40L28.30 11.40L28.30 11.40Q28.42 12.21 28.63 12.78L28.63 12.78L28.63 12.78Q28.83 13.35 29.09 13.71L29.09 13.71L29.09 13.71Q29.35 14.08 29.63 14.28L29.63 14.28L29.63 14.28Q29.92 14.48 30.21 14.55L30.21 14.55L30.21 14.55Q30.50 14.63 30.75 14.63L30.75 14.63L30.75 14.63Q31.01 14.63 31.29 14.56L31.29 14.56L31.29 14.56Q31.56 14.49 31.82 14.36L31.82 14.36L31.82 14.36Q32.09 14.23 32.33 14.05L32.33 14.05L32.33 14.05Q32.57 13.86 32.78 13.62L32.78 13.62L33.09 13.93L33.09 13.93Q32.88 14.18 32.59 14.45L32.59 14.45L32.59 14.45Q32.31 14.71 31.93 14.93L31.93 14.93L31.93 14.93Q31.55 15.14 31.08 15.28L31.08 15.28L31.08 15.28Q30.60 15.42 30.03 15.42L30.03 15.42L30.03 15.42Q29.13 15.42 28.37 15.07L28.37 15.07L28.37 15.07Q27.60 14.73 27.03 14.01L27.03 14.01L27.03 14.01Q26.46 13.29 26.13 12.16L26.13 12.16L26.13 12.16Q25.81 11.03 25.81 9.46L25.81 9.46L25.81 9.46Q25.81 7.98 26.15 6.87L26.15 6.87L26.15 6.87Q26.49 5.76 27.08 5.01L27.08 5.01L27.08 5.01Q27.67 4.26 28.46 3.88L28.46 3.88L28.46 3.88Q29.25 3.50 30.15 3.50L30.15 3.50L30.15 3.50Q30.74 3.50 31.23 3.61L31.23 3.61L31.23 3.61Q31.72 3.73 32.07 3.94L32.07 3.94L32.07 3.94Q32.43 4.16 32.62 4.47L32.62 4.47L32.62 4.47Q32.82 4.79 32.82 5.20L32.82 5.20L32.82 5.20Q32.82 5.38 32.76 5.58L32.76 5.58L32.76 5.58Q32.70 5.78 32.57 5.95L32.57 5.95L32.57 5.95Q32.44 6.12 32.26 6.22L32.26 6.22L32.26 6.22Q32.07 6.33 31.83 6.33L31.83 6.33L31.83 6.33Q31.61 6.33 31.49 6.23L31.49 6.23L31.49 6.23Q31.37 6.14 31.31 5.98L31.31 5.98L31.31 5.98Q31.25 5.82 31.24 5.62L31.24 5.62L31.24 5.62Q31.22 5.42 31.21 5.21L31.21 5.21L31.21 5.21Q31.21 5.00 31.18 4.80L31.18 4.80L31.18 4.80Q31.16 4.59 31.09 4.44L31.09 4.44L31.09 4.44Q31.01 4.28 30.88 4.18L30.88 4.18L30.88 4.18Q30.74 4.09 30.50 4.09ZM33.01 10.22L33.01 10.22L33.01 10.22Q33.01 9.32 33.27 8.65L33.27 8.65L33.27 8.65Q33.53 7.98 33.96 7.53L33.96 7.53L33.96 7.53Q34.40 7.08 34.97 6.85L34.97 6.85L34.97 6.85Q35.55 6.62 36.18 6.62L36.18 6.62L36.18 6.62Q36.80 6.62 37.38 6.83L37.38 6.83L37.38 6.83Q37.95 7.04 38.39 7.47L38.39 7.47L38.39 7.47Q38.82 7.90 39.08 8.56L39.08 8.56L39.08 8.56Q39.34 9.22 39.34 10.12L39.34 10.12L39.34 10.12Q39.34 11.02 39.08 11.71L39.08 11.71L39.08 11.71Q38.82 12.40 38.39 12.87L38.39 12.87L38.39 12.87Q37.95 13.34 37.38 13.59L37.38 13.59L37.38 13.59Q36.80 13.83 36.18 13.83L36.18 13.83L36.18 13.83Q35.55 13.83 34.97 13.60L34.97 13.60L34.97 13.60Q34.40 13.37 33.96 12.92L33.96 12.92L33.96 12.92Q33.53 12.47 33.27 11.79L33.27 11.79L33.27 11.79Q33.01 11.12 33.01 10.22ZM37.21 10.15L37.21 10.15L37.21 10.15Q37.21 9.60 37.18 9.10L37.18 9.10L37.18 9.10Q37.14 8.59 37.03 8.19L37.03 8.19L37.03 8.19Q36.92 7.79 36.72 7.56L36.72 7.56L36.72 7.56Q36.51 7.32 36.18 7.32L36.18 7.32L36.18 7.32Q35.84 7.32 35.64 7.57L35.64 7.57L35.64 7.57Q35.43 7.82 35.32 8.23L35.32 8.23L35.32 8.23Q35.21 8.63 35.18 9.15L35.18 9.15L35.18 9.15Q35.14 9.67 35.14 10.22L35.14 10.22L35.14 10.22Q35.14 10.77 35.18 11.29L35.18 11.29L35.18 11.29Q35.21 11.81 35.32 12.22L35.32 12.22L35.32 12.22Q35.43 12.63 35.64 12.88L35.64 12.88L35.64 12.88Q35.84 13.13 36.18 13.13L36.18 13.13L36.18 13.13Q36.51 13.13 36.72 12.87L36.72 12.87L36.72 12.87Q36.92 12.61 37.03 12.19L37.03 12.19L37.03 12.19Q37.14 11.76 37.18 11.23L37.18 11.23L37.18 11.23Q37.21 10.70 37.21 10.15ZM44.41 10.01L44.41 10.01L44.41 10.01Q44.41 9.93 44.41 9.70L44.41 9.70L44.41 9.70Q44.41 9.47 44.40 9.18L44.40 9.18L44.40 9.18Q44.39 8.88 44.35 8.54L44.35 8.54L44.35 8.54Q44.32 8.21 44.24 7.92L44.24 7.92L44.24 7.92Q44.08 7.71 43.88 7.54L43.88 7.54L43.88 7.54Q43.67 7.38 43.36 7.38L43.36 7.38L43.36 7.38Q42.83 7.38 42.58 8.07L42.58 8.07L42.58 8.07Q42.33 8.77 42.33 10.23L42.33 10.23L42.33 10.23Q42.33 10.88 42.39 11.41L42.39 11.41L42.39 11.41Q42.44 11.94 42.56 12.33L42.56 12.33L42.56 12.33Q42.68 12.71 42.87 12.92L42.87 12.92L42.87 12.92Q43.06 13.13 43.32 13.13L43.32 13.13L43.32 13.13Q44.41 13.13 44.41 10.01ZM44.33 7L44.33 7L44.33 7Q44.20 6.32 43.97 5.73L43.97 5.73L43.97 5.73Q43.74 5.13 43.41 4.70L43.41 4.70L43.41 4.70Q43.09 4.27 42.67 4.03L42.67 4.03L42.67 4.03Q42.26 3.78 41.78 3.78L41.78 3.78L41.78 3.78Q41.51 3.78 41.29 3.85L41.29 3.85L41.29 3.85Q41.06 3.92 40.90 4.01L40.90 4.01L40.90 4.01Q40.74 4.10 40.63 4.19L40.63 4.19L40.63 4.19Q40.52 4.27 40.48 4.31L40.48 4.31L40.30 4.07L40.30 4.07Q40.46 3.86 40.70 3.68L40.70 3.68L40.70 3.68Q40.93 3.49 41.21 3.36L41.21 3.36L41.21 3.36Q41.49 3.23 41.81 3.16L41.81 3.16L41.81 3.16Q42.12 3.08 42.42 3.08L42.42 3.08L42.42 3.08Q43.44 3.08 44.20 3.52L44.20 3.52L44.20 3.52Q44.97 3.96 45.48 4.77L45.48 4.77L45.48 4.77Q45.99 5.58 46.25 6.72L46.25 6.72L46.25 6.72Q46.51 7.86 46.51 9.26L46.51 9.26L46.51 9.26Q46.51 10.38 46.28 11.24L46.28 11.24L46.28 11.24Q46.05 12.09 45.63 12.67L45.63 12.67L45.63 12.67Q45.21 13.25 44.60 13.54L44.60 13.54L44.60 13.54Q44.00 13.83 43.24 13.83L43.24 13.83L43.24 13.83Q42.71 13.83 42.17 13.64L42.17 13.64L42.17 13.64Q41.62 13.45 41.18 13.03L41.18 13.03L41.18 13.03Q40.74 12.61 40.46 11.92L40.46 11.92L40.46 11.92Q40.18 11.23 40.18 10.23L40.18 10.23L40.18 10.23Q40.18 9.37 40.42 8.70L40.42 8.70L40.42 8.70Q40.67 8.03 41.08 7.57L41.08 7.57L41.08 7.57Q41.49 7.11 42.03 6.87L42.03 6.87L42.03 6.87Q42.57 6.62 43.17 6.62L43.17 6.62L43.17 6.62Q43.40 6.62 43.59 6.66L43.59 6.66L43.59 6.66Q43.77 6.70 43.91 6.75L43.91 6.75L43.91 6.75Q44.04 6.81 44.15 6.87L44.15 6.87L44.15 6.87Q44.25 6.94 44.33 7ZM52.28 8.99L49.58 10.58L49.58 10.58Q49.58 10.80 49.65 11.06L49.65 11.06L49.65 11.06Q49.71 11.31 49.83 11.57L49.83 11.57L49.83 11.57Q49.96 11.83 50.14 12.07L50.14 12.07L50.14 12.07Q50.32 12.30 50.56 12.49L50.56 12.49L50.56 12.49Q50.79 12.67 51.08 12.78L51.08 12.78L51.08 12.78Q51.37 12.89 51.71 12.89L51.71 12.89L51.71 12.89Q51.95 12.89 52.15 12.84L52.15 12.84L52.15 12.84Q52.36 12.78 52.53 12.69L52.53 12.69L52.53 12.69Q52.71 12.59 52.88 12.47L52.88 12.47L52.88 12.47Q53.04 12.34 53.20 12.20L53.20 12.20L53.38 12.36L53.38 12.36Q53.22 12.57 52.97 12.82L52.97 12.82L52.97 12.82Q52.73 13.08 52.38 13.30L52.38 13.30L52.38 13.30Q52.03 13.52 51.56 13.67L51.56 13.67L51.56 13.67Q51.10 13.82 50.50 13.82L50.50 13.82L50.50 13.82Q49.91 13.82 49.35 13.60L49.35 13.60L49.35 13.60Q48.78 13.38 48.34 12.95L48.34 12.95L48.34 12.95Q47.91 12.52 47.64 11.88L47.64 11.88L47.64 11.88Q47.38 11.24 47.38 10.38L47.38 10.38L47.38 10.38Q47.38 9.75 47.54 9.24L47.54 9.24L47.54 9.24Q47.69 8.72 47.96 8.30L47.96 8.30L47.96 8.30Q48.23 7.88 48.59 7.57L48.59 7.57L48.59 7.57Q48.95 7.25 49.35 7.04L49.35 7.04L49.35 7.04Q49.75 6.84 50.16 6.73L50.16 6.73L50.16 6.73Q50.57 6.62 50.96 6.62L50.96 6.62L50.96 6.62Q51.46 6.62 51.84 6.73L51.84 6.73L51.84 6.73Q52.21 6.84 52.46 7.03L52.46 7.03L52.46 7.03Q52.71 7.21 52.83 7.45L52.83 7.45L52.83 7.45Q52.96 7.70 52.96 7.96L52.96 7.96L52.96 7.96Q52.96 8.29 52.77 8.54L52.77 8.54L52.77 8.54Q52.59 8.80 52.28 8.99L52.28 8.99ZM49.51 10.02L50.96 9.19L50.96 9.19Q51.04 9.14 51.10 9.09L51.10 9.09L51.10 9.09Q51.16 9.04 51.19 8.97L51.19 8.97L51.19 8.97Q51.23 8.89 51.25 8.79L51.25 8.79L51.25 8.79Q51.26 8.68 51.26 8.52L51.26 8.52L51.26 8.52Q51.26 8.35 51.23 8.15L51.23 8.15L51.23 8.15Q51.19 7.94 51.10 7.75L51.10 7.75L51.10 7.75Q51.01 7.57 50.87 7.44L50.87 7.44L50.87 7.44Q50.74 7.32 50.54 7.32L50.54 7.32L50.54 7.32Q50.30 7.32 50.12 7.47L50.12 7.47L50.12 7.47Q49.95 7.62 49.84 7.85L49.84 7.85L49.84 7.85Q49.72 8.08 49.66 8.38L49.66 8.38L49.66 8.38Q49.59 8.67 49.56 8.98L49.56 8.98L49.56 8.98Q49.53 9.28 49.52 9.55L49.52 9.55L49.52 9.55Q49.51 9.83 49.51 10.02L49.51 10.02ZM65.80 8.90L65.80 9.51L64.81 9.51L64.81 13.52L64.81 13.52Q64.81 14.45 64.50 15.15L64.50 15.15L64.50 15.15Q64.18 15.84 63.62 16.30L63.62 16.30L63.62 16.30Q63.05 16.76 62.28 16.99L62.28 16.99L62.28 16.99Q61.51 17.22 60.60 17.22L60.60 17.22L60.60 17.22Q60.25 17.22 59.93 17.16L59.93 17.16L59.93 17.16Q59.61 17.10 59.36 17.00L59.36 17.00L59.36 17.00Q59.12 16.90 58.97 16.76L58.97 16.76L58.97 16.76Q58.82 16.62 58.82 16.45L58.82 16.45L58.82 16.45Q58.82 16.32 58.86 16.20L58.86 16.20L58.86 16.20Q58.89 16.07 58.96 15.97L58.96 15.97L58.96 15.97Q59.03 15.87 59.13 15.80L59.13 15.80L59.13 15.80Q59.23 15.74 59.35 15.74L59.35 15.74L59.35 15.74Q59.43 15.74 59.49 15.81L59.49 15.81L59.49 15.81Q59.54 15.89 59.60 16.00L59.60 16.00L59.60 16.00Q59.66 16.11 59.75 16.24L59.75 16.24L59.75 16.24Q59.83 16.37 59.95 16.48L59.95 16.48L59.95 16.48Q60.07 16.59 60.25 16.67L60.25 16.67L60.25 16.67Q60.43 16.74 60.70 16.74L60.70 16.74L60.70 16.74Q61.22 16.74 61.63 16.55L61.63 16.55L61.63 16.55Q62.03 16.36 62.30 16.01L62.30 16.01L62.30 16.01Q62.57 15.67 62.71 15.19L62.71 15.19L62.71 15.19Q62.85 14.70 62.85 14.12L62.85 14.12L62.85 13.71L62.85 13.71Q62.56 13.77 62.27 13.80L62.27 13.80L62.27 13.80Q61.98 13.83 61.62 13.83L61.62 13.83L61.62 13.83Q60.69 13.83 59.88 13.55L59.88 13.55L59.88 13.55Q59.06 13.26 58.46 12.67L58.46 12.67L58.46 12.67Q57.85 12.07 57.50 11.15L57.50 11.15L57.50 11.15Q57.16 10.23 57.16 8.95L57.16 8.95L57.16 8.95Q57.16 8.06 57.35 7.31L57.35 7.31L57.35 7.31Q57.54 6.56 57.88 5.95L57.88 5.95L57.88 5.95Q58.22 5.35 58.69 4.89L58.69 4.89L58.69 4.89Q59.16 4.43 59.71 4.12L59.71 4.12L59.71 4.12Q60.26 3.81 60.87 3.66L60.87 3.66L60.87 3.66Q61.48 3.50 62.11 3.50L62.11 3.50L62.11 3.50Q62.71 3.50 63.22 3.61L63.22 3.61L63.22 3.61Q63.73 3.73 64.11 3.94L64.11 3.94L64.11 3.94Q64.49 4.16 64.71 4.47L64.71 4.47L64.71 4.47Q64.93 4.79 64.93 5.20L64.93 5.20L64.93 5.20Q64.93 5.38 64.86 5.58L64.86 5.58L64.86 5.58Q64.80 5.78 64.67 5.95L64.67 5.95L64.67 5.95Q64.55 6.12 64.36 6.22L64.36 6.22L64.36 6.22Q64.18 6.33 63.93 6.33L63.93 6.33L63.93 6.33Q63.64 6.33 63.50 6.16L63.50 6.16L63.50 6.16Q63.36 6.00 63.28 5.75L63.28 5.75L63.28 5.75Q63.21 5.50 63.18 5.21L63.18 5.21L63.18 5.21Q63.14 4.92 63.06 4.67L63.06 4.67L63.06 4.67Q62.98 4.42 62.81 4.26L62.81 4.26L62.81 4.26Q62.64 4.09 62.32 4.09L62.32 4.09L62.32 4.09Q62.08 4.09 61.78 4.20L61.78 4.20L61.78 4.20Q61.48 4.32 61.17 4.57L61.17 4.57L61.17 4.57Q60.87 4.82 60.57 5.21L60.57 5.21L60.57 5.21Q60.27 5.59 60.04 6.13L60.04 6.13L60.04 6.13Q59.81 6.67 59.67 7.37L59.67 7.37L59.67 7.37Q59.53 8.07 59.53 8.95L59.53 8.95L59.53 8.95Q59.53 9.92 59.66 10.61L59.66 10.61L59.66 10.61Q59.78 11.29 59.98 11.75L59.98 11.75L59.98 11.75Q60.18 12.22 60.45 12.49L60.45 12.49L60.45 12.49Q60.71 12.76 60.99 12.89L60.99 12.89L60.99 12.89Q61.27 13.03 61.55 13.07L61.55 13.07L61.55 13.07Q61.82 13.10 62.06 13.10L62.06 13.10L62.06 13.10Q62.30 13.10 62.49 13.07L62.49 13.07L62.49 13.07Q62.69 13.03 62.85 12.96L62.85 12.96L62.85 9.51L61.65 9.51L61.65 8.90L65.80 8.90ZM68.90 4.21L68.90 7.92L68.90 7.92Q69.15 7.56 69.47 7.27L69.47 7.27L69.47 7.27Q69.60 7.15 69.76 7.03L69.76 7.03L69.76 7.03Q69.92 6.92 70.11 6.83L70.11 6.83L70.11 6.83Q70.29 6.73 70.49 6.68L70.49 6.68L70.49 6.68Q70.69 6.62 70.90 6.62L70.90 6.62L70.90 6.62Q71.36 6.62 71.72 6.80L71.72 6.80L71.72 6.80Q72.08 6.98 72.33 7.40L72.33 7.40L72.33 7.40Q72.58 7.81 72.71 8.50L72.71 8.50L72.71 8.50Q72.84 9.19 72.84 10.21L72.84 10.21L72.84 10.21Q72.84 11.20 72.66 11.93L72.66 11.93L72.66 11.93Q72.48 12.66 72.19 13.17L72.19 13.17L72.19 13.17Q71.91 13.69 71.54 14.01L71.54 14.01L71.54 14.01Q71.18 14.33 70.81 14.52L70.81 14.52L70.81 14.52Q70.44 14.70 70.10 14.78L70.10 14.78L70.10 14.78Q69.76 14.85 69.51 14.85L69.51 14.85L69.45 14.57L69.45 14.57Q69.75 14.50 69.99 14.29L69.99 14.29L69.99 14.29Q70.23 14.09 70.40 13.62L70.40 13.62L70.40 13.62Q70.56 13.15 70.65 12.36L70.65 12.36L70.65 12.36Q70.73 11.57 70.73 10.32L70.73 10.32L70.73 10.32Q70.73 9.45 70.65 8.94L70.65 8.94L70.65 8.94Q70.57 8.42 70.45 8.15L70.45 8.15L70.45 8.15Q70.32 7.88 70.16 7.80L70.16 7.80L70.16 7.80Q70 7.71 69.84 7.71L69.84 7.71L69.84 7.71Q69.64 7.71 69.49 7.82L69.49 7.82L69.49 7.82Q69.34 7.92 69.22 8.06L69.22 8.06L69.22 8.06Q69.11 8.20 69.03 8.33L69.03 8.33L69.03 8.33Q68.95 8.47 68.90 8.54L68.90 8.54L68.90 13.10L68.90 13.10Q68.90 13.19 68.87 13.32L68.87 13.32L68.87 13.32Q68.84 13.45 68.74 13.56L68.74 13.56L68.74 13.56Q68.63 13.67 68.42 13.75L68.42 13.75L68.42 13.75Q68.22 13.83 67.85 13.83L67.85 13.83L67.85 13.83Q67.49 13.83 67.28 13.74L67.28 13.74L67.28 13.74Q67.07 13.66 66.96 13.54L66.96 13.54L66.96 13.54Q66.86 13.43 66.83 13.30L66.83 13.30L66.83 13.30Q66.80 13.18 66.80 13.10L66.80 13.10L66.80 4.29L66.80 4.29Q66.80 4.09 66.71 3.94L66.71 3.94L66.71 3.94Q66.62 3.79 66.40 3.79L66.40 3.79L66.40 3.79Q66.28 3.79 66.20 3.83L66.20 3.83L66.20 3.83Q66.11 3.87 66.01 3.94L66.01 3.94L65.88 3.78L65.88 3.78Q66.04 3.65 66.23 3.52L66.23 3.52L66.23 3.52Q66.42 3.40 66.65 3.30L66.65 3.30L66.65 3.30Q66.88 3.21 67.14 3.14L67.14 3.14L67.14 3.14Q67.40 3.08 67.68 3.08L67.68 3.08L67.68 3.08Q68.13 3.08 68.37 3.20L68.37 3.20L68.37 3.20Q68.62 3.32 68.74 3.50L68.74 3.50L68.74 3.50Q68.85 3.67 68.88 3.87L68.88 3.87L68.88 3.87Q68.90 4.06 68.90 4.21L68.90 4.21ZM76.43 7.76L76.43 13.10L76.43 13.10Q76.43 13.19 76.40 13.32L76.40 13.32L76.40 13.32Q76.37 13.45 76.26 13.56L76.26 13.56L76.26 13.56Q76.15 13.67 75.93 13.75L75.93 13.75L75.93 13.75Q75.72 13.83 75.36 13.83L75.36 13.83L75.36 13.83Q75.00 13.83 74.79 13.74L74.79 13.74L74.79 13.74Q74.59 13.66 74.48 13.54L74.48 13.54L74.48 13.54Q74.38 13.43 74.36 13.30L74.36 13.30L74.36 13.30Q74.33 13.18 74.33 13.10L74.33 13.10L74.33 7.83L74.33 7.83Q74.33 7.63 74.24 7.48L74.24 7.48L74.24 7.48Q74.15 7.33 73.93 7.33L73.93 7.33L73.93 7.33Q73.81 7.33 73.73 7.38L73.73 7.38L73.73 7.38Q73.65 7.42 73.55 7.49L73.55 7.49L73.41 7.32L73.41 7.32Q73.57 7.19 73.76 7.06L73.76 7.06L73.76 7.06Q73.96 6.94 74.18 6.84L74.18 6.84L74.18 6.84Q74.41 6.75 74.67 6.69L74.67 6.69L74.67 6.69Q74.93 6.62 75.22 6.62L75.22 6.62L75.22 6.62Q75.66 6.62 75.91 6.74L75.91 6.74L75.91 6.74Q76.15 6.86 76.27 7.04L76.27 7.04L76.27 7.04Q76.38 7.21 76.41 7.41L76.41 7.41L76.41 7.41Q76.43 7.61 76.43 7.76L76.43 7.76ZM74.12 5.07L74.12 5.07L74.12 5.07Q74.12 4.87 74.21 4.70L74.21 4.70L74.21 4.70Q74.29 4.53 74.45 4.40L74.45 4.40L74.45 4.40Q74.60 4.27 74.80 4.19L74.80 4.19L74.80 4.19Q75.00 4.12 75.24 4.12L75.24 4.12L75.24 4.12Q75.48 4.12 75.68 4.19L75.68 4.19L75.68 4.19Q75.88 4.27 76.03 4.40L76.03 4.40L76.03 4.40Q76.18 4.53 76.27 4.70L76.27 4.70L76.27 4.70Q76.35 4.87 76.35 5.07L76.35 5.07L76.35 5.07Q76.35 5.26 76.27 5.43L76.27 5.43L76.27 5.43Q76.18 5.61 76.03 5.73L76.03 5.73L76.03 5.73Q75.88 5.86 75.68 5.93L75.68 5.93L75.68 5.93Q75.48 6.01 75.24 6.01L75.24 6.01L75.24 6.01Q75.00 6.01 74.80 5.93L74.80 5.93L74.80 5.93Q74.60 5.86 74.45 5.73L74.45 5.73L74.45 5.73Q74.29 5.61 74.21 5.43L74.21 5.43L74.21 5.43Q74.12 5.26 74.12 5.07ZM82.17 10.32L82.17 10.32L82.17 10.32Q82.17 9.45 82.10 8.94L82.10 8.94L82.10 8.94Q82.02 8.42 81.89 8.15L81.89 8.15L81.89 8.15Q81.76 7.88 81.60 7.80L81.60 7.80L81.60 7.80Q81.44 7.71 81.28 7.71L81.28 7.71L81.28 7.71Q81.08 7.71 80.93 7.82L80.93 7.82L80.93 7.82Q80.77 7.92 80.66 8.06L80.66 8.06L80.66 8.06Q80.55 8.20 80.47 8.33L80.47 8.33L80.47 8.33Q80.39 8.47 80.34 8.54L80.34 8.54L80.34 13.10L80.34 13.10Q80.34 13.19 80.31 13.32L80.31 13.32L80.31 13.32Q80.28 13.45 80.18 13.56L80.18 13.56L80.18 13.56Q80.07 13.67 79.86 13.75L79.86 13.75L79.86 13.75Q79.65 13.83 79.29 13.83L79.29 13.83L79.29 13.83Q78.93 13.83 78.72 13.74L78.72 13.74L78.72 13.74Q78.51 13.66 78.40 13.54L78.40 13.54L78.40 13.54Q78.29 13.43 78.26 13.30L78.26 13.30L78.26 13.30Q78.24 13.18 78.24 13.10L78.24 13.10L78.24 7.83L78.24 7.83Q78.24 7.63 78.15 7.48L78.15 7.48L78.15 7.48Q78.05 7.33 77.83 7.33L77.83 7.33L77.83 7.33Q77.72 7.33 77.64 7.38L77.64 7.38L77.64 7.38Q77.55 7.42 77.46 7.49L77.46 7.49L77.31 7.32L77.31 7.32Q77.47 7.19 77.67 7.06L77.67 7.06L77.67 7.06Q77.86 6.94 78.09 6.84L78.09 6.84L78.09 6.84Q78.31 6.75 78.57 6.69L78.57 6.69L78.57 6.69Q78.83 6.62 79.12 6.62L79.12 6.62L79.12 6.62Q79.56 6.62 79.81 6.77L79.81 6.77L79.81 6.77Q80.06 6.92 80.17 7.12L80.17 7.12L80.17 7.12Q80.29 7.33 80.31 7.55L80.31 7.55L80.31 7.55Q80.34 7.77 80.34 7.92L80.34 7.92L80.34 7.92Q80.59 7.56 80.91 7.27L80.91 7.27L80.91 7.27Q81.04 7.15 81.20 7.03L81.20 7.03L81.20 7.03Q81.36 6.92 81.54 6.83L81.54 6.83L81.54 6.83Q81.72 6.73 81.93 6.68L81.93 6.68L81.93 6.68Q82.13 6.62 82.34 6.62L82.34 6.62L82.34 6.62Q82.80 6.62 83.16 6.80L83.16 6.80L83.16 6.80Q83.52 6.98 83.77 7.40L83.77 7.40L83.77 7.40Q84.01 7.81 84.14 8.50L84.14 8.50L84.14 8.50Q84.27 9.19 84.27 10.21L84.27 10.21L84.27 10.21Q84.27 11.20 84.10 11.93L84.10 11.93L84.10 11.93Q83.92 12.66 83.63 13.17L83.63 13.17L83.63 13.17Q83.34 13.69 82.98 14.01L82.98 14.01L82.98 14.01Q82.62 14.33 82.25 14.52L82.25 14.52L82.25 14.52Q81.88 14.70 81.54 14.78L81.54 14.78L81.54 14.78Q81.20 14.85 80.96 14.85L80.96 14.85L80.88 14.57L80.88 14.57Q81.09 14.53 81.26 14.42L81.26 14.42L81.26 14.42Q81.44 14.32 81.58 14.12L81.58 14.12L81.58 14.12Q81.72 13.92 81.83 13.62L81.83 13.62L81.83 13.62Q81.94 13.32 82.02 12.86L82.02 12.86L82.02 12.86Q82.10 12.40 82.14 11.77L82.14 11.77L82.14 11.77Q82.17 11.15 82.17 10.32ZM91.66 7.62L91.66 12.53L91.66 12.53Q91.66 12.59 91.67 12.66L91.67 12.66L91.67 12.66Q91.68 12.74 91.70 12.80L91.70 12.80L91.70 12.80Q91.73 12.87 91.79 12.91L91.79 12.91L91.79 12.91Q91.84 12.95 91.94 12.95L91.94 12.95L91.94 12.95Q92.07 12.95 92.18 12.85L92.18 12.85L92.18 12.85Q92.28 12.76 92.37 12.67L92.37 12.67L92.53 12.81L92.53 12.81Q92.43 12.95 92.27 13.13L92.27 13.13L92.27 13.13Q92.12 13.30 91.90 13.46L91.90 13.46L91.90 13.46Q91.68 13.62 91.40 13.72L91.40 13.72L91.40 13.72Q91.12 13.83 90.77 13.83L90.77 13.83L90.77 13.83Q90.47 13.83 90.24 13.75L90.24 13.75L90.24 13.75Q90.02 13.67 89.87 13.54L89.87 13.54L89.87 13.54Q89.71 13.41 89.64 13.22L89.64 13.22L89.64 13.22Q89.56 13.04 89.56 12.84L89.56 12.84L89.56 12.53L89.56 12.53Q89.22 12.90 88.85 13.18L88.85 13.18L88.85 13.18Q88.68 13.30 88.50 13.42L88.50 13.42L88.50 13.42Q88.31 13.54 88.12 13.63L88.12 13.63L88.12 13.63Q87.92 13.72 87.71 13.77L87.71 13.77L87.71 13.77Q87.49 13.83 87.28 13.83L87.28 13.83L87.28 13.83Q86.87 13.83 86.58 13.68L86.58 13.68L86.58 13.68Q86.29 13.54 86.11 13.30L86.11 13.30L86.11 13.30Q85.93 13.06 85.85 12.76L85.85 12.76L85.85 12.76Q85.77 12.46 85.77 12.15L85.77 12.15L85.77 7.92L85.77 7.92Q85.77 7.86 85.76 7.79L85.76 7.79L85.76 7.79Q85.76 7.72 85.73 7.65L85.73 7.65L85.73 7.65Q85.70 7.59 85.65 7.55L85.65 7.55L85.65 7.55Q85.59 7.51 85.49 7.51L85.49 7.51L85.49 7.51Q85.37 7.51 85.26 7.60L85.26 7.60L85.26 7.60Q85.16 7.69 85.07 7.79L85.07 7.79L84.90 7.64L84.90 7.64Q85.00 7.50 85.16 7.32L85.16 7.32L85.16 7.32Q85.31 7.15 85.53 6.99L85.53 6.99L85.53 6.99Q85.75 6.84 86.03 6.73L86.03 6.73L86.03 6.73Q86.32 6.62 86.67 6.62L86.67 6.62L86.67 6.62Q86.97 6.62 87.19 6.70L87.19 6.70L87.19 6.70Q87.42 6.78 87.57 6.91L87.57 6.91L87.57 6.91Q87.72 7.05 87.79 7.23L87.79 7.23L87.79 7.23Q87.87 7.41 87.87 7.62L87.87 7.62L87.87 12.18L87.87 12.18Q87.87 12.28 87.90 12.38L87.90 12.38L87.90 12.38Q87.93 12.48 87.99 12.56L87.99 12.56L87.99 12.56Q88.05 12.64 88.14 12.69L88.14 12.69L88.14 12.69Q88.22 12.74 88.35 12.74L88.35 12.74L88.35 12.74Q88.55 12.74 88.74 12.64L88.74 12.64L88.74 12.64Q88.94 12.54 89.11 12.40L89.11 12.40L89.11 12.40Q89.27 12.26 89.39 12.12L89.39 12.12L89.39 12.12Q89.51 11.98 89.56 11.92L89.56 11.92L89.56 7.92L89.56 7.92Q89.56 7.86 89.56 7.79L89.56 7.79L89.56 7.79Q89.55 7.72 89.52 7.65L89.52 7.65L89.52 7.65Q89.50 7.59 89.44 7.55L89.44 7.55L89.44 7.55Q89.39 7.51 89.28 7.51L89.28 7.51L89.28 7.51Q89.16 7.51 89.06 7.60L89.06 7.60L89.06 7.60Q88.95 7.69 88.87 7.79L88.87 7.79L88.70 7.64L88.70 7.64Q88.80 7.50 88.95 7.32L88.95 7.32L88.95 7.32Q89.11 7.15 89.33 6.99L89.33 6.99L89.33 6.99Q89.54 6.84 89.83 6.73L89.83 6.73L89.83 6.73Q90.11 6.62 90.46 6.62L90.46 6.62L90.46 6.62Q90.76 6.62 90.99 6.70L90.99 6.70L90.99 6.70Q91.21 6.78 91.36 6.91L91.36 6.91L91.36 6.91Q91.51 7.05 91.59 7.23L91.59 7.23L91.59 7.23Q91.66 7.41 91.66 7.62L91.66 7.62ZM95.61 7.66L96.51 9.18L97.27 8.05L97.27 8.05Q97.36 7.90 97.43 7.75L97.43 7.75L97.43 7.75Q97.49 7.59 97.54 7.45L97.54 7.45L97.54 7.45Q97.58 7.30 97.61 7.17L97.61 7.17L97.61 7.17Q97.64 7.05 97.67 6.96L97.67 6.96L97.67 6.96Q97.73 6.78 97.86 6.70L97.86 6.70L97.86 6.70Q97.99 6.62 98.26 6.62L98.26 6.62L98.26 6.62Q98.42 6.62 98.54 6.68L98.54 6.68L98.54 6.68Q98.66 6.73 98.66 6.86L98.66 6.86L98.66 6.86Q98.66 7.05 98.52 7.35L98.52 7.35L98.52 7.35Q98.38 7.64 98.15 7.96L98.15 7.96L96.88 9.79L98.66 12.76L98.66 12.76Q98.72 12.88 98.78 12.95L98.78 12.95L98.78 12.95Q98.84 13.03 98.90 13.07L98.90 13.07L98.90 13.07Q98.95 13.11 99.00 13.13L99.00 13.13L99.00 13.13Q99.06 13.15 99.13 13.15L99.13 13.15L99.13 13.15Q99.20 13.15 99.28 13.11L99.28 13.11L99.28 13.11Q99.35 13.07 99.45 13.00L99.45 13.00L99.59 13.16L99.59 13.16Q99.44 13.29 99.26 13.42L99.26 13.42L99.26 13.42Q99.09 13.54 98.89 13.64L98.89 13.64L98.89 13.64Q98.68 13.73 98.43 13.79L98.43 13.79L98.43 13.79Q98.18 13.86 97.87 13.86L97.87 13.86L97.87 13.86Q97.52 13.86 97.27 13.74L97.27 13.74L97.27 13.74Q97.02 13.62 96.83 13.44L96.83 13.44L96.83 13.44Q96.64 13.26 96.51 13.06L96.51 13.06L96.51 13.06Q96.37 12.85 96.28 12.68L96.28 12.68L95.28 11.02L94.36 12.40L94.36 12.40Q94.26 12.55 94.20 12.70L94.20 12.70L94.20 12.70Q94.13 12.86 94.09 13.01L94.09 13.01L94.09 13.01Q94.04 13.15 94.01 13.28L94.01 13.28L94.01 13.28Q93.98 13.41 93.95 13.49L93.95 13.49L93.95 13.49Q93.90 13.67 93.77 13.75L93.77 13.75L93.77 13.75Q93.64 13.83 93.37 13.83L93.37 13.83L93.37 13.83Q93.21 13.83 93.09 13.77L93.09 13.77L93.09 13.77Q92.97 13.72 92.97 13.60L92.97 13.60L92.97 13.60Q92.97 13.40 93.09 13.14L93.09 13.14L93.09 13.14Q93.21 12.87 93.47 12.49L93.47 12.49L94.93 10.42L93.29 7.66L93.29 7.66Q93.21 7.52 93.14 7.43L93.14 7.43L93.14 7.43Q93.06 7.33 92.93 7.33L92.93 7.33L92.93 7.33Q92.80 7.33 92.61 7.49L92.61 7.49L92.47 7.32L92.47 7.32Q92.63 7.19 92.81 7.06L92.81 7.06L92.81 7.06Q93.00 6.94 93.21 6.84L93.21 6.84L93.21 6.84Q93.43 6.75 93.68 6.69L93.68 6.69L93.68 6.69Q93.93 6.62 94.22 6.62L94.22 6.62L94.22 6.62Q94.54 6.62 94.76 6.72L94.76 6.72L94.76 6.72Q94.99 6.82 95.14 6.97L95.14 6.97L95.14 6.97Q95.29 7.12 95.40 7.31L95.40 7.31L95.40 7.31Q95.51 7.49 95.61 7.66L95.61 7.66Z"></path></g><!----><g data-v-423bf9ae="" id="ce9458b4-65ca-4548-8dae-aac6b3b4eec5" transform="matrix(3.9130434782608696,0,0,3.9130434782608696,149.39130486871886,-15.652173913043477)" stroke="none" fill="white"><path d="M17.063 4l-.031.156-5 22-.188.844h3.094l.031-.156 5-22L20.157 4h-3.094zM10 7l-.406.313-9 7-.594.469v1.438l.594.469 9 7 .406.313v-3.781l-6.063-4.719L10 10.783V7.002zm12 0v3.781l6.063 4.719L22 20.219V24l.406-.313 9-7 .594-.469V14.78l-.594-.469-9-7L22 6.998z"></path></g><!----></svg>